<svg width="161" height="34" viewBox="0 0 161 34" fill="none" xmlns="http://www.w3.org/2000/svg">
<path d="M7.732 14.16V26.375H0.907003V1.525H6.227L16.202 14.16V1.525H23.027V26.375H17.602L7.732 14.16ZM26.8387 26.375V7.965H33.4887V26.375H26.8387ZM26.8387 6.425V0.824999H33.4887V6.425H26.8387ZM55.3684 26.375H48.7184V16.015C48.7184 15.105 48.5084 14.4517 48.0884 14.055C47.6917 13.635 47.225 13.425 46.6884 13.425C46.1284 13.425 45.5334 13.67 44.9034 14.16C44.2734 14.65 43.8067 15.28 43.5034 16.05V26.375H36.8534V7.965H42.8384V10.695C43.4917 9.69167 44.4017 8.93333 45.5684 8.42C46.7584 7.88333 48.1584 7.615 49.7684 7.615C51.0284 7.615 52.02 7.84833 52.7434 8.315C53.49 8.75833 54.05 9.31833 54.4234 9.995C54.82 10.6717 55.0767 11.395 55.1934 12.165C55.31 12.935 55.3684 13.635 55.3684 14.265V26.375ZM58.1717 33.69C57.1917 33.69 56.2583 33.5267 55.3717 33.2C54.485 32.8733 53.68 32.4067 52.9567 31.8L55.6867 27.285C56.1067 27.7517 56.655 27.985 57.3317 27.985C58.265 27.985 58.7317 27.4833 58.7317 26.48V7.965H65.3817V25.955C65.3817 27.0983 65.2067 28.1367 64.8567 29.07C64.5067 30.0267 64.005 30.8433 63.3517 31.52C62.7217 32.22 61.9633 32.7567 61.0767 33.13C60.19 33.5033 59.2217 33.69 58.1717 33.69ZM58.7317 6.425V0.824999H65.3817V6.425H58.7317ZM74.168 26.725C73.258 26.725 72.4064 26.5733 71.613 26.27C70.8197 25.9667 70.1314 25.5583 69.548 25.045C68.988 24.5083 68.5447 23.8783 68.218 23.155C67.8914 22.4317 67.728 21.65 67.728 20.81C67.728 19.8767 67.9264 19.025 68.323 18.255C68.7197 17.485 69.268 16.82 69.968 16.26C70.668 15.7 71.4964 15.2683 72.453 14.965C73.433 14.6617 74.5064 14.51 75.673 14.51C77.1664 14.51 78.403 14.7433 79.383 15.21V14.65C79.383 13.7867 79.1264 13.145 78.613 12.725C78.123 12.305 77.318 12.095 76.198 12.095C75.148 12.095 74.1797 12.27 73.293 12.62C72.4064 12.9467 71.473 13.4367 70.493 14.09L68.568 9.96C70.9947 8.39667 73.7597 7.615 76.863 7.615C79.803 7.615 82.0664 8.26833 83.653 9.575C85.2397 10.8817 86.033 12.8417 86.033 15.455V19.025C86.033 19.655 86.1264 20.0983 86.313 20.355C86.4997 20.5883 86.8264 20.7283 87.293 20.775V26.375C86.7564 26.4917 86.243 26.5733 85.753 26.62C85.2864 26.69 84.8664 26.725 84.493 26.725C83.303 26.725 82.393 26.515 81.763 26.095C81.1564 25.6517 80.7597 25.01 80.573 24.17L80.433 23.505C79.6164 24.555 78.6714 25.36 77.598 25.92C76.5247 26.4567 75.3814 26.725 74.168 26.725ZM76.163 21.965C76.5597 21.965 76.968 21.9067 77.388 21.79C77.808 21.65 78.1814 21.475 78.508 21.265C78.7647 21.0783 78.9747 20.88 79.138 20.67C79.3014 20.4367 79.383 20.2033 79.383 19.97V18.605C78.9864 18.465 78.5547 18.3483 78.088 18.255C77.6214 18.1617 77.2014 18.115 76.828 18.115C76.0114 18.115 75.3347 18.3133 74.798 18.71C74.2614 19.1067 73.993 19.6083 73.993 20.215C73.993 20.7283 74.1914 21.1483 74.588 21.475C75.008 21.8017 75.533 21.965 76.163 21.965ZM108.945 26.375V13.285L104.78 22.49H101.14L96.9752 13.285V26.375H90.1502V1.525H97.6052L102.96 13.215L108.35 1.525H115.77V26.375H108.945ZM124.72 26.725C123.81 26.725 122.958 26.5733 122.165 26.27C121.371 25.9667 120.683 25.5583 120.1 25.045C119.54 24.5083 119.096 23.8783 118.77 23.155C118.443 22.4317 118.28 21.65 118.28 20.81C118.28 19.8767 118.478 19.025 118.875 18.255C119.271 17.485 119.82 16.82 120.52 16.26C121.22 15.7 122.048 15.2683 123.005 14.965C123.985 14.6617 125.058 14.51 126.225 14.51C127.718 14.51 128.955 14.7433 129.935 15.21V14.65C129.935 13.7867 129.678 13.145 129.165 12.725C128.675 12.305 127.87 12.095 126.75 12.095C125.7 12.095 124.731 12.27 123.845 12.62C122.958 12.9467 122.025 13.4367 121.045 14.09L119.12 9.96C121.546 8.39667 124.311 7.615 127.415 7.615C130.355 7.615 132.618 8.26833 134.205 9.575C135.791 10.8817 136.585 12.8417 136.585 15.455V19.025C136.585 19.655 136.678 20.0983 136.865 20.355C137.051 20.5883 137.378 20.7283 137.845 20.775V26.375C137.308 26.4917 136.795 26.5733 136.305 26.62C135.838 26.69 135.418 26.725 135.045 26.725C133.855 26.725 132.945 26.515 132.315 26.095C131.708 25.6517 131.311 25.01 131.125 24.17L130.985 23.505C130.168 24.555 129.223 25.36 128.15 25.92C127.076 26.4567 125.933 26.725 124.72 26.725ZM126.715 21.965C127.111 21.965 127.52 21.9067 127.94 21.79C128.36 21.65 128.733 21.475 129.06 21.265C129.316 21.0783 129.526 20.88 129.69 20.67C129.853 20.4367 129.935 20.2033 129.935 19.97V18.605C129.538 18.465 129.106 18.3483 128.64 18.255C128.173 18.1617 127.753 18.115 127.38 18.115C126.563 18.115 125.886 18.3133 125.35 18.71C124.813 19.1067 124.545 19.6083 124.545 20.215C124.545 20.7283 124.743 21.1483 125.14 21.475C125.56 21.8017 126.085 21.965 126.715 21.965ZM140.247 26.375V7.965H146.897V26.375H140.247ZM140.247 6.425V0.824999H146.897V6.425H140.247ZM150.122 0.824999H156.772V19.06C156.772 20.46 157.343 21.16 158.487 21.16C158.767 21.16 159.07 21.1133 159.397 21.02C159.723 20.9267 160.027 20.7983 160.307 20.635L161.147 25.535C160.353 25.9083 159.455 26.2 158.452 26.41C157.472 26.62 156.538 26.725 155.652 26.725C153.878 26.725 152.513 26.27 151.557 25.36C150.6 24.45 150.122 23.1317 150.122 21.405V0.824999Z" fill="black"/>
</svg>
